<svg id="svg" fill="#000000" stroke="#000000" width="200px" height="200px" version="1.1" viewBox="144 144 512 512" xmlns="http://www.w3.org/2000/svg">
    <g id="IconSvg_bgCarrier" stroke-width="0"></g>
    <g id="IconSvg_tracerCarrier" stroke-linecap="round" stroke-linejoin="round" stroke="#CCCCCC"></g>
     <g id="IconSvg_iconCarrier">
      <g xmlns="http://www.w3.org/2000/svg">
  <path d="m368.48 344.89h62.977v62.977h-62.977z"></path>
  <path d="m321.25 496.67v105.8l7.8711-6.3008 58.254-46.602-58.254-46.602z"></path>
  <path d="m456.33 494.46 9.7617-7.8711h-132.25l9.918 7.8711 56.207 45.031z"></path>
  <path d="m412.56 549.57 58.254 46.602 7.8711 6.3008v-105.8l-7.8711 6.2969z"></path>
  <path d="m466.09 612.54-9.7617-7.8711-56.363-45.027-56.367 45.027-9.7617 7.8711-7.7148 6.1406c-1.418 1.1016-1.9219 1.7305-3.6523 1.7305h154.73c-1.7305 0-1.9844-0.62891-3.4023-1.7305z"></path>
  <path d="m623.22 447.7-31.172-11.652-89.742-33.691v-68.016c0-2.832-1.5742-5.5117-4.0938-6.9258l-94.465-52.426c-2.3633-1.2578-5.1953-1.2578-7.5586 0l-94.465 52.426c-2.5195 1.418-4.0938 4.0938-4.0938 6.9258v68.016l-89.742 33.691-31.172 11.652c-3.9375 1.5742-5.9844 6.1406-4.5664 10.234 1.2578 3.1484 4.25 5.0391 7.3984 5.0391 0.94531 0 1.8906-0.15625 2.832-0.47266l20.781-7.7148 0.007813 157.75c0 4.4102 3.4648 7.8711 7.8711 7.8711h102.34v-141.7h173.18v141.7h102.34c4.4102 0 7.8711-3.4648 7.8711-7.8711l0.003906-157.75 20.781 7.7148c0.94531 0.31641 1.8906 0.47266 2.832 0.47266 3.1484 0 6.1406-1.8906 7.3984-5.0391 1.5781-4.0938-0.62891-8.6602-4.5625-10.234zm-183.89-31.961h-78.719v-78.719h78.719z"></path>
 </g>

      </g>
      </svg>